<mxfile host="app.diagrams.net" modified="2023-06-19T08:53:14.376Z" agent="Mozilla/5.0 (Windows NT 10.0; Win64; x64) AppleWebKit/537.36 (KHTML, like Gecko) Chrome/113.0.0.0 Safari/537.36 OPR/99.0.0.0 (Edition Yx 05)" etag="69254DOYmKTqRcW8G7Ey" version="21.3.7" type="device">
  <diagram name="Страница 1" id="iM8rf-kqkM7Y0NnAJD3X">
    <mxGraphModel dx="1258" dy="1019" grid="0" gridSize="10" guides="1" tooltips="1" connect="1" arrows="1" fold="1" page="1" pageScale="1" pageWidth="827" pageHeight="1169" math="0" shadow="0">
      <root>
        <mxCell id="0" />
        <mxCell id="1" parent="0" />
        <mxCell id="WGqTEPe17NS4BC0jBtw7-1" value="Animal" style="swimlane;fontStyle=1;align=center;verticalAlign=top;childLayout=stackLayout;horizontal=1;startSize=26;horizontalStack=0;resizeParent=1;resizeParentMax=0;resizeLast=0;collapsible=1;marginBottom=0;whiteSpace=wrap;html=1;" vertex="1" parent="1">
          <mxGeometry x="286" y="38" width="256" height="241" as="geometry" />
        </mxCell>
        <mxCell id="WGqTEPe17NS4BC0jBtw7-2" value="- commands : ArrayList&amp;lt;String&amp;gt;&lt;br&gt;- name : String&lt;br&gt;- age : int" style="text;strokeColor=none;fillColor=none;align=left;verticalAlign=top;spacingLeft=4;spacingRight=4;overflow=hidden;rotatable=0;points=[[0,0.5],[1,0.5]];portConstraint=eastwest;whiteSpace=wrap;html=1;" vertex="1" parent="WGqTEPe17NS4BC0jBtw7-1">
          <mxGeometry y="26" width="256" height="62" as="geometry" />
        </mxCell>
        <mxCell id="WGqTEPe17NS4BC0jBtw7-3" value="" style="line;strokeWidth=1;fillColor=none;align=left;verticalAlign=middle;spacingTop=-1;spacingLeft=3;spacingRight=3;rotatable=0;labelPosition=right;points=[];portConstraint=eastwest;strokeColor=inherit;" vertex="1" parent="WGqTEPe17NS4BC0jBtw7-1">
          <mxGeometry y="88" width="256" height="8" as="geometry" />
        </mxCell>
        <mxCell id="WGqTEPe17NS4BC0jBtw7-4" value="+ Animal() : void&lt;br&gt;+ getCommands() : ArrayList&amp;lt;String&amp;gt;&lt;br&gt;+ setCommands(ArrayList&amp;lt;String&amp;gt;) : void&lt;br&gt;+ addCommand(String) : boolean&lt;br&gt;+ show() : void&lt;br&gt;+ getName() : String&lt;br&gt;+ setName(String) : void&lt;br&gt;+ getAge() : int&lt;br&gt;+ setAge(int) : void" style="text;strokeColor=none;fillColor=none;align=left;verticalAlign=top;spacingLeft=4;spacingRight=4;overflow=hidden;rotatable=0;points=[[0,0.5],[1,0.5]];portConstraint=eastwest;whiteSpace=wrap;html=1;" vertex="1" parent="WGqTEPe17NS4BC0jBtw7-1">
          <mxGeometry y="96" width="256" height="145" as="geometry" />
        </mxCell>
        <mxCell id="WGqTEPe17NS4BC0jBtw7-5" value="Pet" style="swimlane;fontStyle=1;align=center;verticalAlign=top;childLayout=stackLayout;horizontal=1;startSize=26;horizontalStack=0;resizeParent=1;resizeParentMax=0;resizeLast=0;collapsible=1;marginBottom=0;whiteSpace=wrap;html=1;" vertex="1" parent="1">
          <mxGeometry x="244" y="343" width="160" height="79" as="geometry" />
        </mxCell>
        <mxCell id="WGqTEPe17NS4BC0jBtw7-7" value="" style="line;strokeWidth=1;fillColor=none;align=left;verticalAlign=middle;spacingTop=-1;spacingLeft=3;spacingRight=3;rotatable=0;labelPosition=right;points=[];portConstraint=eastwest;strokeColor=inherit;" vertex="1" parent="WGqTEPe17NS4BC0jBtw7-5">
          <mxGeometry y="26" width="160" height="8" as="geometry" />
        </mxCell>
        <mxCell id="WGqTEPe17NS4BC0jBtw7-8" value="+ Pet() : void&lt;br&gt;+ show() : void" style="text;strokeColor=none;fillColor=none;align=left;verticalAlign=top;spacingLeft=4;spacingRight=4;overflow=hidden;rotatable=0;points=[[0,0.5],[1,0.5]];portConstraint=eastwest;whiteSpace=wrap;html=1;" vertex="1" parent="WGqTEPe17NS4BC0jBtw7-5">
          <mxGeometry y="34" width="160" height="45" as="geometry" />
        </mxCell>
        <mxCell id="WGqTEPe17NS4BC0jBtw7-9" value="Pack" style="swimlane;fontStyle=1;align=center;verticalAlign=top;childLayout=stackLayout;horizontal=1;startSize=26;horizontalStack=0;resizeParent=1;resizeParentMax=0;resizeLast=0;collapsible=1;marginBottom=0;whiteSpace=wrap;html=1;" vertex="1" parent="1">
          <mxGeometry x="428" y="343" width="160" height="79" as="geometry" />
        </mxCell>
        <mxCell id="WGqTEPe17NS4BC0jBtw7-10" value="" style="line;strokeWidth=1;fillColor=none;align=left;verticalAlign=middle;spacingTop=-1;spacingLeft=3;spacingRight=3;rotatable=0;labelPosition=right;points=[];portConstraint=eastwest;strokeColor=inherit;" vertex="1" parent="WGqTEPe17NS4BC0jBtw7-9">
          <mxGeometry y="26" width="160" height="8" as="geometry" />
        </mxCell>
        <mxCell id="WGqTEPe17NS4BC0jBtw7-11" value="+ Pack() : void&lt;br&gt;+ show() : void" style="text;strokeColor=none;fillColor=none;align=left;verticalAlign=top;spacingLeft=4;spacingRight=4;overflow=hidden;rotatable=0;points=[[0,0.5],[1,0.5]];portConstraint=eastwest;whiteSpace=wrap;html=1;" vertex="1" parent="WGqTEPe17NS4BC0jBtw7-9">
          <mxGeometry y="34" width="160" height="45" as="geometry" />
        </mxCell>
        <mxCell id="WGqTEPe17NS4BC0jBtw7-12" value="Dog" style="swimlane;fontStyle=1;align=center;verticalAlign=top;childLayout=stackLayout;horizontal=1;startSize=26;horizontalStack=0;resizeParent=1;resizeParentMax=0;resizeLast=0;collapsible=1;marginBottom=0;whiteSpace=wrap;html=1;" vertex="1" parent="1">
          <mxGeometry x="40" y="441" width="160" height="79" as="geometry" />
        </mxCell>
        <mxCell id="WGqTEPe17NS4BC0jBtw7-13" value="" style="line;strokeWidth=1;fillColor=none;align=left;verticalAlign=middle;spacingTop=-1;spacingLeft=3;spacingRight=3;rotatable=0;labelPosition=right;points=[];portConstraint=eastwest;strokeColor=inherit;" vertex="1" parent="WGqTEPe17NS4BC0jBtw7-12">
          <mxGeometry y="26" width="160" height="8" as="geometry" />
        </mxCell>
        <mxCell id="WGqTEPe17NS4BC0jBtw7-14" value="+ Dog() : void&lt;br&gt;+ show() : void" style="text;strokeColor=none;fillColor=none;align=left;verticalAlign=top;spacingLeft=4;spacingRight=4;overflow=hidden;rotatable=0;points=[[0,0.5],[1,0.5]];portConstraint=eastwest;whiteSpace=wrap;html=1;" vertex="1" parent="WGqTEPe17NS4BC0jBtw7-12">
          <mxGeometry y="34" width="160" height="45" as="geometry" />
        </mxCell>
        <mxCell id="WGqTEPe17NS4BC0jBtw7-15" value="Cat" style="swimlane;fontStyle=1;align=center;verticalAlign=top;childLayout=stackLayout;horizontal=1;startSize=26;horizontalStack=0;resizeParent=1;resizeParentMax=0;resizeLast=0;collapsible=1;marginBottom=0;whiteSpace=wrap;html=1;" vertex="1" parent="1">
          <mxGeometry x="40" y="541" width="160" height="79" as="geometry" />
        </mxCell>
        <mxCell id="WGqTEPe17NS4BC0jBtw7-16" value="" style="line;strokeWidth=1;fillColor=none;align=left;verticalAlign=middle;spacingTop=-1;spacingLeft=3;spacingRight=3;rotatable=0;labelPosition=right;points=[];portConstraint=eastwest;strokeColor=inherit;" vertex="1" parent="WGqTEPe17NS4BC0jBtw7-15">
          <mxGeometry y="26" width="160" height="8" as="geometry" />
        </mxCell>
        <mxCell id="WGqTEPe17NS4BC0jBtw7-17" value="+ Pet() : void&lt;br&gt;+ show() : void" style="text;strokeColor=none;fillColor=none;align=left;verticalAlign=top;spacingLeft=4;spacingRight=4;overflow=hidden;rotatable=0;points=[[0,0.5],[1,0.5]];portConstraint=eastwest;whiteSpace=wrap;html=1;" vertex="1" parent="WGqTEPe17NS4BC0jBtw7-15">
          <mxGeometry y="34" width="160" height="45" as="geometry" />
        </mxCell>
        <mxCell id="WGqTEPe17NS4BC0jBtw7-18" value="Hamster" style="swimlane;fontStyle=1;align=center;verticalAlign=top;childLayout=stackLayout;horizontal=1;startSize=26;horizontalStack=0;resizeParent=1;resizeParentMax=0;resizeLast=0;collapsible=1;marginBottom=0;whiteSpace=wrap;html=1;" vertex="1" parent="1">
          <mxGeometry x="244" y="614" width="160" height="79" as="geometry" />
        </mxCell>
        <mxCell id="WGqTEPe17NS4BC0jBtw7-19" value="" style="line;strokeWidth=1;fillColor=none;align=left;verticalAlign=middle;spacingTop=-1;spacingLeft=3;spacingRight=3;rotatable=0;labelPosition=right;points=[];portConstraint=eastwest;strokeColor=inherit;" vertex="1" parent="WGqTEPe17NS4BC0jBtw7-18">
          <mxGeometry y="26" width="160" height="8" as="geometry" />
        </mxCell>
        <mxCell id="WGqTEPe17NS4BC0jBtw7-20" value="+ Pet() : void&lt;br&gt;+ show() : void" style="text;strokeColor=none;fillColor=none;align=left;verticalAlign=top;spacingLeft=4;spacingRight=4;overflow=hidden;rotatable=0;points=[[0,0.5],[1,0.5]];portConstraint=eastwest;whiteSpace=wrap;html=1;" vertex="1" parent="WGqTEPe17NS4BC0jBtw7-18">
          <mxGeometry y="34" width="160" height="45" as="geometry" />
        </mxCell>
        <mxCell id="WGqTEPe17NS4BC0jBtw7-21" value="Horse" style="swimlane;fontStyle=1;align=center;verticalAlign=top;childLayout=stackLayout;horizontal=1;startSize=26;horizontalStack=0;resizeParent=1;resizeParentMax=0;resizeLast=0;collapsible=1;marginBottom=0;whiteSpace=wrap;html=1;" vertex="1" parent="1">
          <mxGeometry x="625" y="437" width="160" height="79" as="geometry" />
        </mxCell>
        <mxCell id="WGqTEPe17NS4BC0jBtw7-22" value="" style="line;strokeWidth=1;fillColor=none;align=left;verticalAlign=middle;spacingTop=-1;spacingLeft=3;spacingRight=3;rotatable=0;labelPosition=right;points=[];portConstraint=eastwest;strokeColor=inherit;" vertex="1" parent="WGqTEPe17NS4BC0jBtw7-21">
          <mxGeometry y="26" width="160" height="8" as="geometry" />
        </mxCell>
        <mxCell id="WGqTEPe17NS4BC0jBtw7-23" value="+ Pet() : void&lt;br&gt;+ show() : void" style="text;strokeColor=none;fillColor=none;align=left;verticalAlign=top;spacingLeft=4;spacingRight=4;overflow=hidden;rotatable=0;points=[[0,0.5],[1,0.5]];portConstraint=eastwest;whiteSpace=wrap;html=1;" vertex="1" parent="WGqTEPe17NS4BC0jBtw7-21">
          <mxGeometry y="34" width="160" height="45" as="geometry" />
        </mxCell>
        <mxCell id="WGqTEPe17NS4BC0jBtw7-24" value="Donkey" style="swimlane;fontStyle=1;align=center;verticalAlign=top;childLayout=stackLayout;horizontal=1;startSize=26;horizontalStack=0;resizeParent=1;resizeParentMax=0;resizeLast=0;collapsible=1;marginBottom=0;whiteSpace=wrap;html=1;" vertex="1" parent="1">
          <mxGeometry x="428" y="614" width="160" height="79" as="geometry" />
        </mxCell>
        <mxCell id="WGqTEPe17NS4BC0jBtw7-25" value="" style="line;strokeWidth=1;fillColor=none;align=left;verticalAlign=middle;spacingTop=-1;spacingLeft=3;spacingRight=3;rotatable=0;labelPosition=right;points=[];portConstraint=eastwest;strokeColor=inherit;" vertex="1" parent="WGqTEPe17NS4BC0jBtw7-24">
          <mxGeometry y="26" width="160" height="8" as="geometry" />
        </mxCell>
        <mxCell id="WGqTEPe17NS4BC0jBtw7-26" value="+ Pet() : void&lt;br&gt;+ show() : void" style="text;strokeColor=none;fillColor=none;align=left;verticalAlign=top;spacingLeft=4;spacingRight=4;overflow=hidden;rotatable=0;points=[[0,0.5],[1,0.5]];portConstraint=eastwest;whiteSpace=wrap;html=1;" vertex="1" parent="WGqTEPe17NS4BC0jBtw7-24">
          <mxGeometry y="34" width="160" height="45" as="geometry" />
        </mxCell>
        <mxCell id="WGqTEPe17NS4BC0jBtw7-27" value="Camel" style="swimlane;fontStyle=1;align=center;verticalAlign=top;childLayout=stackLayout;horizontal=1;startSize=26;horizontalStack=0;resizeParent=1;resizeParentMax=0;resizeLast=0;collapsible=1;marginBottom=0;whiteSpace=wrap;html=1;" vertex="1" parent="1">
          <mxGeometry x="625" y="535" width="160" height="79" as="geometry" />
        </mxCell>
        <mxCell id="WGqTEPe17NS4BC0jBtw7-28" value="" style="line;strokeWidth=1;fillColor=none;align=left;verticalAlign=middle;spacingTop=-1;spacingLeft=3;spacingRight=3;rotatable=0;labelPosition=right;points=[];portConstraint=eastwest;strokeColor=inherit;" vertex="1" parent="WGqTEPe17NS4BC0jBtw7-27">
          <mxGeometry y="26" width="160" height="8" as="geometry" />
        </mxCell>
        <mxCell id="WGqTEPe17NS4BC0jBtw7-29" value="+ Pet() : void&lt;br&gt;+ show() : void" style="text;strokeColor=none;fillColor=none;align=left;verticalAlign=top;spacingLeft=4;spacingRight=4;overflow=hidden;rotatable=0;points=[[0,0.5],[1,0.5]];portConstraint=eastwest;whiteSpace=wrap;html=1;" vertex="1" parent="WGqTEPe17NS4BC0jBtw7-27">
          <mxGeometry y="34" width="160" height="45" as="geometry" />
        </mxCell>
        <mxCell id="WGqTEPe17NS4BC0jBtw7-30" value="Extends" style="endArrow=block;endSize=16;endFill=0;html=1;rounded=0;exitX=0.5;exitY=0;exitDx=0;exitDy=0;entryX=0;entryY=0.5;entryDx=0;entryDy=0;" edge="1" parent="1" source="WGqTEPe17NS4BC0jBtw7-12" target="WGqTEPe17NS4BC0jBtw7-8">
          <mxGeometry x="0.2511" y="17" width="160" relative="1" as="geometry">
            <mxPoint x="332" y="421" as="sourcePoint" />
            <mxPoint x="492" y="421" as="targetPoint" />
            <Array as="points">
              <mxPoint x="120" y="400" />
            </Array>
            <mxPoint as="offset" />
          </mxGeometry>
        </mxCell>
        <mxCell id="WGqTEPe17NS4BC0jBtw7-32" value="Extends" style="endArrow=block;endSize=16;endFill=0;html=1;rounded=0;exitX=1;exitY=0.5;exitDx=0;exitDy=0;entryX=0.519;entryY=1.022;entryDx=0;entryDy=0;entryPerimeter=0;" edge="1" parent="1" source="WGqTEPe17NS4BC0jBtw7-17" target="WGqTEPe17NS4BC0jBtw7-8">
          <mxGeometry x="-0.4532" y="25" width="160" relative="1" as="geometry">
            <mxPoint x="332" y="421" as="sourcePoint" />
            <mxPoint x="492" y="421" as="targetPoint" />
            <Array as="points">
              <mxPoint x="327" y="541" />
            </Array>
            <mxPoint as="offset" />
          </mxGeometry>
        </mxCell>
        <mxCell id="WGqTEPe17NS4BC0jBtw7-33" value="Extends" style="endArrow=block;endSize=16;endFill=0;html=1;rounded=0;exitX=0.5;exitY=0;exitDx=0;exitDy=0;" edge="1" parent="1" source="WGqTEPe17NS4BC0jBtw7-21">
          <mxGeometry x="0.103" y="-11" width="160" relative="1" as="geometry">
            <mxPoint x="332" y="421" as="sourcePoint" />
            <mxPoint x="591" y="392" as="targetPoint" />
            <Array as="points">
              <mxPoint x="705" y="392" />
            </Array>
            <mxPoint as="offset" />
          </mxGeometry>
        </mxCell>
        <mxCell id="WGqTEPe17NS4BC0jBtw7-34" value="Extends" style="endArrow=block;endSize=16;endFill=0;html=1;rounded=0;exitX=0;exitY=0.5;exitDx=0;exitDy=0;entryX=0.444;entryY=1.044;entryDx=0;entryDy=0;entryPerimeter=0;" edge="1" parent="1" source="WGqTEPe17NS4BC0jBtw7-29" target="WGqTEPe17NS4BC0jBtw7-11">
          <mxGeometry x="-0.457" y="-16" width="160" relative="1" as="geometry">
            <mxPoint x="332" y="421" as="sourcePoint" />
            <mxPoint x="591" y="392" as="targetPoint" />
            <Array as="points">
              <mxPoint x="499" y="542" />
            </Array>
            <mxPoint as="offset" />
          </mxGeometry>
        </mxCell>
        <mxCell id="WGqTEPe17NS4BC0jBtw7-39" value="Extends" style="endArrow=block;endSize=16;endFill=0;html=1;rounded=0;exitX=0.5;exitY=0;exitDx=0;exitDy=0;entryX=0.519;entryY=1.022;entryDx=0;entryDy=0;entryPerimeter=0;" edge="1" parent="1" source="WGqTEPe17NS4BC0jBtw7-18" target="WGqTEPe17NS4BC0jBtw7-8">
          <mxGeometry x="-0.5374" y="-28" width="160" relative="1" as="geometry">
            <mxPoint x="332" y="421" as="sourcePoint" />
            <mxPoint x="492" y="421" as="targetPoint" />
            <Array as="points">
              <mxPoint x="327" y="541" />
            </Array>
            <mxPoint as="offset" />
          </mxGeometry>
        </mxCell>
        <mxCell id="WGqTEPe17NS4BC0jBtw7-40" value="Extends" style="endArrow=block;endSize=16;endFill=0;html=1;rounded=0;exitX=0.5;exitY=0;exitDx=0;exitDy=0;entryX=0.444;entryY=1.044;entryDx=0;entryDy=0;entryPerimeter=0;" edge="1" parent="1" source="WGqTEPe17NS4BC0jBtw7-24" target="WGqTEPe17NS4BC0jBtw7-11">
          <mxGeometry x="-0.5392" y="29" width="160" relative="1" as="geometry">
            <mxPoint x="332" y="421" as="sourcePoint" />
            <mxPoint x="591" y="392" as="targetPoint" />
            <Array as="points">
              <mxPoint x="499" y="542" />
            </Array>
            <mxPoint as="offset" />
          </mxGeometry>
        </mxCell>
        <mxCell id="WGqTEPe17NS4BC0jBtw7-41" value="Extends" style="endArrow=block;endSize=16;endFill=0;html=1;rounded=0;exitX=0.5;exitY=0;exitDx=0;exitDy=0;entryX=0.508;entryY=1;entryDx=0;entryDy=0;entryPerimeter=0;" edge="1" parent="1" source="WGqTEPe17NS4BC0jBtw7-5" target="WGqTEPe17NS4BC0jBtw7-4">
          <mxGeometry x="-0.4182" y="24" width="160" relative="1" as="geometry">
            <mxPoint x="332" y="421" as="sourcePoint" />
            <mxPoint x="492" y="421" as="targetPoint" />
            <Array as="points">
              <mxPoint x="416" y="319" />
            </Array>
            <mxPoint as="offset" />
          </mxGeometry>
        </mxCell>
        <mxCell id="WGqTEPe17NS4BC0jBtw7-42" value="Extends" style="endArrow=block;endSize=16;endFill=0;html=1;rounded=0;exitX=0.5;exitY=0;exitDx=0;exitDy=0;entryX=0.508;entryY=1;entryDx=0;entryDy=0;entryPerimeter=0;" edge="1" parent="1" source="WGqTEPe17NS4BC0jBtw7-9" target="WGqTEPe17NS4BC0jBtw7-4">
          <mxGeometry x="-0.559" y="-19" width="160" relative="1" as="geometry">
            <mxPoint x="332" y="421" as="sourcePoint" />
            <mxPoint x="492" y="421" as="targetPoint" />
            <Array as="points">
              <mxPoint x="416" y="319" />
            </Array>
            <mxPoint as="offset" />
          </mxGeometry>
        </mxCell>
      </root>
    </mxGraphModel>
  </diagram>
</mxfile>
